<svg id="Layer_1" data-name="Layer 1" xmlns="http://www.w3.org/2000/svg" viewBox="0 0 30.9 42"><defs><style>.cls-1{fill:#4d4d4d;}</style></defs><path class="cls-1" d="M12.9,49.35v-42H31a15.94,15.94,0,0,1,6.63,1.29,10.32,10.32,0,0,1,4.44,3.66,9.83,9.83,0,0,1,1.59,5.61v.6a9.14,9.14,0,0,1-1.11,4.74,8.79,8.79,0,0,1-2.64,2.88A11.2,11.2,0,0,1,37,27.57v1a10.15,10.15,0,0,1,3,1.41,8.83,8.83,0,0,1,2.7,2.91,9.4,9.4,0,0,1,1.11,4.86v.6A10.12,10.12,0,0,1,37.71,48a15.48,15.48,0,0,1-6.57,1.32Zm6.48-24.12h11a7.4,7.4,0,0,0,4.86-1.53,5.11,5.11,0,0,0,1.86-4.17v-.6a5.15,5.15,0,0,0-1.83-4.17,7.38,7.38,0,0,0-4.89-1.53h-11Zm0,18.24h11a7.57,7.57,0,0,0,5.07-1.56,5.37,5.37,0,0,0,1.83-4.32v-.54a5.37,5.37,0,0,0-1.83-4.32,7.57,7.57,0,0,0-5.07-1.56h-11Z" transform="translate(-12.9 -7.35)"/></svg>